<svg width="16" height="15" viewBox="0 0 16 15" fill="none" xmlns="http://www.w3.org/2000/svg">
<path d="M7.76383 0.681559C7.84153 0.457383 8.15857 0.457382 8.23626 0.681559L9.90117 5.48537C9.93605 5.58601 10.0309 5.6535 10.1374 5.6535H15.4891C15.7351 5.6535 15.8332 5.9716 15.6298 6.11012L11.3285 9.03984C11.2352 9.10341 11.1961 9.22164 11.2331 9.32833L12.8824 14.0873C12.9613 14.3148 12.7045 14.5114 12.5055 14.3758L8.14079 11.4029C8.05587 11.345 7.94422 11.345 7.85931 11.4029L3.4946 14.3758C3.29559 14.5114 3.0388 14.3148 3.11765 14.0873L4.76702 9.32833C4.804 9.22164 4.76487 9.10341 4.67155 9.03984L0.370303 6.11012C0.16693 5.9716 0.264972 5.6535 0.511041 5.6535H5.86271C5.96922 5.6535 6.06404 5.58601 6.09892 5.48537L7.76383 0.681559Z" fill="#FBB040"/>
</svg>
